<svg xmlns="http://www.w3.org/2000/svg" width="43.667" height="43.193" viewBox="0 0 43.667 43.193"><circle fill="#FFF" stroke="#BEBDBD" stroke-miterlimit="10" cx="36.934" cy="16.915" r="6.233"/><circle fill="#FFF" stroke="#BEBDBD" stroke-miterlimit="10" cx="6.733" cy="16.915" r="6.233"/><path fill="#BEBDBD" d="M38.173 15.798c0 8.948-7.254 14.587-16.202 14.587s-16.2-5.64-16.2-14.587S13.022 0 21.97 0s16.203 6.85 16.203 15.798z"/><g fill="#FFF"><path d="M13.593 18.914c.017.064.026.114.026.15 0 .023-.01.043-.027.06l-.123.045c-.064 0-.142.018-.232.056s-.165.057-.223.057l-.202-.01c-.088.042-.158.063-.21.063-.047 0-.113-.015-.197-.044-.085-.03-.144-.044-.18-.044-.03 0-.063.02-.1.057-.04.038-.073.057-.102.057l-.062-.07-.096-.026c-.04 0-.098.006-.17.017-.074.012-.128.018-.163.018-.047 0-.1-.013-.158-.043-.058-.03-.102-.044-.13-.044-.03 0-.07.013-.124.04-.052.026-.093.04-.122.04-.03 0-.072-.014-.127-.04-.055-.027-.106-.04-.152-.04-.047 0-.085-.013-.114-.04-.03-.026-.05-.04-.06-.04-.02 0-.038.014-.058.04-.02.028-.036.04-.048.04-.018 0-.057-.03-.118-.087-.06-.06-.11-.088-.144-.088-.023 0-.044.018-.062.052l-.017-.123c-.152-.018-.225-.06-.22-.13.02-.02.054-.107.106-.264.035-.117.09-.176.167-.176l.035.01c0 .034.018.05.053.05.03 0 .108-.03.237-.095l.044.114c.215.07.393.126.534.167.017.017.035.026.052.026.035 0 .09-.018.167-.053.076-.035.134-.052.175-.052s.102.014.184.044c.082.028.146.043.193.043.035 0 .086-.012.154-.035.066-.023.114-.035.144-.035.017 0 .042.01.075.03.03.02.06.03.082.03.018 0 .045-.007.083-.02.038-.015.07-.023.092-.023.117 0 .27-.014.46-.044s.343-.044.46-.044c.04 0 .083.03.127.092l.066.092v.06s.005.093.023.158zm.35-4.157c0 .006-.035.088-.105.246-.06.035-.097.067-.114.096l-.026.14-.228.21c-.146.145-.225.283-.237.41-.012.02-.032.028-.06.028-.09 0-.153.026-.194.08-.042.05-.086.078-.133.078l-.08-.018c-.134-.135-.248-.243-.34-.324.046-.123.095-.228.148-.316.07 0 .136-.032.197-.096.06-.065.092-.13.092-.193 0-.065-.038-.1-.114-.106h-.193c-.053 0-.13.016-.228.048-.1.032-.174.048-.22.048-.023 0-.06-.017-.114-.052-.052-.035-.096-.052-.13-.052-.07 0-.188.015-.352.044-.164.03-.283.044-.36.044-.034 0-.09-.01-.166-.027-.076-.018-.13-.027-.167-.027-.03 0-.068.015-.117.044-.05.03-.09.044-.118.044-.023 0-.053-.012-.088-.035-.035-.023-.06-.035-.08-.035-.016 0-.04.012-.07.035-.028.023-.05.035-.07.035h-.016c-.01-.012-.066-.044-.166-.096-.082-.035-.123-.067-.123-.097 0-.012.004-.04.01-.088.012-.03.015-.055.01-.08-.048-.045-.07-.09-.07-.13v-.008l.078-.063c.03-.076.073-.114.13-.114.036 0 .074.003.115.01.035.005.06.005.08 0 .028-.007.07-.028.122-.062.017.02.035.027.052.027.018 0 .044-.01.08-.03s.063-.03.087-.03c.018 0 .05.007.1.02.05.016.093.023.128.023s.088.01.158.026c.07.018.117.027.14.027.093 0 .246-.044.456-.13.035 0 .08.018.136.056.055.037.11.056.162.056.035 0 .09-.012.162-.035.073-.022.13-.034.17-.034.03 0 .077.01.14.027.065.018.11.026.132.026.035 0 .092-.01.17-.027s.14-.027.18-.027c.036 0 .084.012.146.035.06.024.11.036.144.036.04 0 .076-.006.105-.018.03-.012.05-.017.062-.017.03 0 .076.024.14.07.3.03.448.128.448.297zM20.677 15.34l.095.034c0 .035.013.08.04.134.025.055.038.094.038.117 0 .035-.004.087-.013.156-.01.07-.02.112-.03.126-.012.014-.056.04-.134.073-.078.034-.13.05-.16.05s-.06-.01-.095-.03c-.035-.02-.058-.03-.07-.03-.023 0-.064.02-.12.06-.04.007-.082-.02-.123-.077l-.086-.008c-.082 0-.14.014-.174.043l-.095.026c-.086 0-.138.012-.155.035-.023.056-.05.114-.078.172l.113.148-.035.156.07.07c-.04.097-.06.152-.06.164 0 .03.017.062.055.1.038.037.056.072.056.107 0 .017-.008.056-.026.117-.017.06-.02.106-.008.134.01.018.037.035.078.052.04.018.063.038.07.06l-.105.21c-.052.074-.115.112-.19.112-.024 0-.052-.01-.084-.03-.03-.02-.055-.03-.072-.03-.017 0-.04.014-.07.043-.028.03-.054.044-.077.044-.017 0-.034-.015-.05-.045l-.045-.173-.06-.01-.01-.025c0-.046.01-.098.027-.156-.006-.022-.028-.047-.065-.072-.038-.026-.056-.06-.056-.1 0-.126-.02-.325-.06-.596l-.07-.07c0-.023.01-.052.03-.086.02-.035.03-.06.03-.078 0-.07-.047-.144-.142-.225-.096-.08-.178-.12-.247-.12-.063 0-.16.012-.29.038S18 16 17.95 16c-.03 0-.09-.044-.18-.13l-.114.052c-.035 0-.09.004-.17.013-.077.01-.13.013-.16.013-.016 0-.047-.013-.09-.04-.043-.025-.085-.038-.125-.038-.047 0-.11.023-.19.07-.088-.082-.148-.12-.183-.114-.035.035-.086.03-.156-.017-.022.01-.04.03-.05.055-.013.026-.04.036-.087.03-.127-.023-.214-.02-.26.008-.023-.07-.064-.104-.12-.104-.047 0-.094.022-.14.07l-.052-.088c-.08-.035-.12-.073-.12-.117 0-.043-.006-.096-.017-.16-.012-.064-.017-.113-.017-.148 0-.03.006-.05.017-.06l.13-.01.07-.086.077-.042c.023 0 .053.01.09.03.038.02.07.03.092.03.017 0 .042-.008.073-.026.032-.017.06-.026.082-.026.03 0 .065.013.108.04.043.025.08.038.108.038.42 0 .69-.008.805-.026.006-.006.045.01.117.048.072.038.123.056.15.056.042 0 .1-.015.174-.048.074-.03.123-.048.146-.048.023 0 .052.016.087.048.035.032.066.048.095.048.018 0 .042-.008.073-.026.033-.017.055-.026.066-.026.12.018.213.035.277.052.03.006.06-.004.09-.03.032-.026.05-.05.05-.074 0-.023-.017-.046-.05-.07l-.055-.042c.046-.058.07-.118.07-.182 0-.052-.04-.136-.122-.25 0-.036.014-.067.043-.096l-.053-.07c-.03-.017-.043-.034-.043-.052 0-.023.012-.052.035-.086.022-.035.033-.06.033-.078l-.052-.14c.036-.068.053-.112.053-.13 0-.108.003-.17.01-.18l.086-.036c.074.012.13.023.164.035.03.007.066 0 .112-.02s.08-.03.104-.03.056.052.1.16c.043.106.065.174.065.202 0 .023-.012.057-.035.104-.023.046-.034.08-.034.104 0 .052.033.12.1.208.065.087.098.153.098.2l-.078.172c.012-.017.03-.004.056.04.026.043.045.076.056.1.052.16.162.247.33.26.09-.036.155-.053.19-.053.017 0 .038.01.06.03.024.02.04.03.053.03.018 0 .037-.013.057-.04.02-.025.036-.038.048-.038.023 0 .087.02.19.06.105.04.17.06.2.06.024.002.088-.016.192-.05zm-1.33 3.528c.003.05.02.122.052.217.03.096.047.155.047.177l-.01.035c-.04.012-.172.078-.397.2l-.113-.07c-.023 0-.055.017-.095.05-.04.036-.078.053-.113.053-.024 0-.058-.008-.105-.026-.046-.017-.08-.026-.104-.026-.04 0-.088-.008-.146-.026-.058-.017-.098-.026-.122-.026-.023 0-.05.02-.078.056-.03.038-.055.056-.078.056-.017 0-.075-.038-.173-.113l-.12-.025c-.04 0-.077.003-.112.01-.057-.082-.117-.123-.18-.123-.018 0-.04.01-.066.026-.026.018-.045.027-.056.027-.023 0-.04-.01-.052-.027-.006-.052-.026-.078-.06-.078h-.018l-.078-.008c-.202-.18-.37-.323-.502-.433.01-.017.017-.038.017-.06 0-.07-.042-.167-.125-.294-.084-.127-.126-.205-.126-.234 0-.18.006-.24.017-.182-.005-.023-.048-.078-.13-.165.047-.047.07-.088.07-.123 0-.023-.01-.056-.03-.1-.02-.042-.03-.075-.03-.098 0-.036.012-.067.035-.096.006-.03-.006-.07-.035-.126-.03-.055-.043-.096-.043-.125 0-.07.037-.1.112-.095.097-.057.15-.087.155-.087.017 0 .04.01.065.03.026.02.048.03.065.03.006 0 .035-.005.087-.016.035-.006.063-.003.086.008.023.012.035.04.035.087 0 .074.014.136.043.185.03.05.043.085.043.108 0 .133.024.21.072.234.05.023.074.043.074.06 0 .023-.012.054-.035.09-.022.04-.034.066-.034.083 0 .03.038.115.112.26.075.144.124.234.147.268l.104.026.008.12.112-.016c.144.15.283.225.415.225.087 0 .215.012.386.035.17.023.297.035.377.035.035 0 .07-.02.104-.06.036-.04.067-.062.097-.062.023 0 .05.02.082.053.03.035.055.052.072.052.03 0 .065-.008.108-.026s.076-.027.1-.027c.043 0 .064.026.067.075zm.576-4.567c-.023-.04-.034-.065-.034-.077l.05-.078-.017-.12c-.017-.03 0-.26.052-.694.08-.01.144-.03.19-.06l.114.035.103-.043c.133.057.2.135.2.234 0 .046.005.115.017.208.012.092.017.156.017.19 0 .018-.016.032-.048.044-.033.012-.05.026-.05.044 0 .046.032.09.096.13-.012.04-.02.072-.026.095.035.087.052.144.052.173 0 .04-.014.078-.043.113-.047.156-.082.234-.105.234-.012 0-.087-.014-.225-.043-.14-.03-.213-.046-.225-.052-.058-.18-.1-.29-.122-.33zm1.87-.362c.046.018.07.035.07.052 0 .03-.01.082-.03.16-.02.078-.03.13-.03.16 0 .017.003.046.01.087.005.034.005.06 0 .078 0 .017-.055.06-.16.13-.108.07-.173.104-.196.104-.023 0-.043-.027-.06-.08-.018-.05-.067-.077-.148-.077.005-.133-.01-.21-.044-.234-.035-.134-.052-.21-.052-.226 0-.017.004-.046.013-.086s.01-.072.004-.096l-.112-.182.018-.104.12-.052c-.01-.03-.016-.057-.016-.087 0-.133.066-.204.2-.216l.13.044c.022-.006.045-.01.068-.01.162 0 .243.128.243.382 0 .023-.015.052-.047.086-.032.035-.048.067-.048.096s.022.052.068.07zM26.788 18.194c0 .073-.025.176-.074.308-.05.133-.073.207-.073.222 0 .1-.035.16-.107.18-.072.02-.108.057-.108.11 0 .243-.104.36-.312.35h-.026l.01.086c-.093.03-.16.057-.2.078-.283.078-.49.125-.624.14-.046.062-.092.093-.138.093.034 0-.01-.01-.13-.03-.04-.01-.093-.006-.16.015-.067.02-.114.03-.143.03-.046 0-.12-.01-.225-.034-.104-.022-.18-.034-.225-.034-.03 0-.07.01-.125.028s-.097.027-.125.027c-.156 0-.308-.06-.455-.178-.147-.12-.278-.182-.394-.187l-.053-.18c-.035-.02-.068-.04-.1-.062-.03-.02-.047-.062-.047-.125 0-.057.007-.115.022-.175.014-.06.022-.1.022-.12 0-.063-.03-.14-.087-.227l.165-.265-.06-.092c.005-.015.017-.024.034-.024s.04.01.068.03c.11-.19.185-.287.225-.287l.034.008c.035.015.064.023.087.023.035 0 .073-.023.117-.07.044-.046.086-.07.126-.07.03 0 .068.01.117.027.05.018.085.027.108.027-.01 0 .05-.023.183-.07.018 0 .065.014.143.043.078.03.143.043.195.043.07 0 .113-.015.13-.046l.01.046c0 .02-.004.036-.01.047 0 .02.056.046.165.074.11.028.18.07.208.128-.057.03-.086.06-.086.086 0 .015.023.023.07.023.01 0 .028-.006.05-.02.024-.012.04-.018.053-.018.018 0 .038.007.06.022l.036.07c-.006.052-.015.09-.026.117.075.06.112.108.112.14 0 .108.012.194.035.256-.012.026-.017.052-.017.078 0 .114.057.17.173.17.052 0 .15-.052.29-.16.14-.106.212-.18.212-.22 0-.09.033-.16.1-.215.065-.056.098-.11.098-.16 0-.027-.01-.065-.03-.114-.02-.05-.03-.087-.03-.113s.015-.055.048-.086c.032-.03.05-.05.05-.055 0-.01-.05-.04-.148-.086-.012-.067-.03-.13-.052-.187-.225-.2-.428-.355-.606-.47-.03-.025-.05-.038-.06-.038-.047.03-.082.046-.105.046-.15-.067-.235-.1-.252-.1-.12 0-.213-.01-.277-.032-.005-.006-.03.003-.077.023-.03.01-.072.006-.13-.013-.058-.018-.095-.027-.113-.027-.156 0-.283-.02-.38-.062-.11 0-.168-.003-.174-.008-.08-.047-.14-.078-.182-.094.03-.052.044-.122.044-.21v-.03c0-.14.055-.232.164-.273.046-.057.07-.104.07-.14.023-.036.08-.095.173-.176.092-.08.154-.15.186-.21s.05-.106.057-.136c.064-.035.113-.056.147-.06.023-.074.04-.13.048-.168.01-.04.048-.08.117-.125.068-.044.112-.087.13-.13l.008-.03c0-.104.043-.173.13-.207.086-.034.13-.102.13-.207 0-.046-.023-.07-.07-.07-.023 0-.057.008-.104.023-.046.015-.083.023-.112.023-.03 0-.062-.013-.1-.036-.038-.024-.065-.035-.082-.035-.04 0-.098-.003-.173-.01-.075-.004-.13-.007-.165-.007-.017 0-.043.01-.078.03-.034.022-.066.032-.095.032l-.157-.008-.078.086-.026.008c-.03 0-.067-.013-.114-.042-.046-.028-.075-.045-.086-.05-.018-.006-.064-.006-.14 0-.063 0-.106-.01-.13-.03l-.017-.188c0-.01.012-.03.035-.062.023-.03.035-.06.035-.086 0-.12-.003-.16-.01-.117.007-.036.04-.054.1-.054.06 0 .146-.025.256-.077l.172.046c.07.02.13.03.182.03.023 0 .057-.01.104-.03.046-.02.083-.027.113-.016.082.02.128.03.14.03.017 0 .06-.01.13-.03.034-.01.083-.007.147.012.064.018.107.027.13.027.052 0 .128-.008.23-.023.1-.015.174-.023.22-.023.03 0 .065.01.108.027.043.018.076.028.1.028.022 0 .052-.01.09-.028.037-.018.065-.027.082-.027.058 0 .13.034.22.1.09.07.14.13.152.18l.086.08.035.077c0 .052-.044.134-.133.245-.09.11-.166.166-.23.166-.04.006-.06.013-.06.023 0-.006.006.015.017.06.006.032-.003.048-.026.048-.075 0-.115.045-.12.136-.007.09-.027.136-.062.136-.012 0-.028-.007-.048-.02-.02-.013-.036-.02-.048-.02-.018 0-.048.027-.09.08s-.066.087-.066.108v.14c-.006.052-.036.078-.09.078s-.083.01-.083.03l.01.032-.07.187c-.063.026-.112.04-.147.046-.017.095-.06.18-.13.258l-.026.11c0 .072.035.108.104.108.197 0 .38.038.55.113.17.074.29.114.36.12.07.072.152.113.247.12.095.008.15.017.17.028.033.057.054.1.06.132.028.057.114.154.26.288.126.125.19.213.19.265s.02.112.056.18c.038.066.056.12.056.163l.008.308zm-2.26.476c-.057-.088-.114-.174-.172-.257-.057.015-.107.024-.147.024-.053 0-.092-.016-.118-.047-.026-.03-.042-.047-.048-.047-.208 0-.312.07-.312.21-.058.006-.094.022-.108.05l-.048.098.06.07c.064.105.116.172.157.204l.034.11c.075-.01.133-.01.173 0l.12.092c.024 0 .047-.013.07-.04.023-.025.044-.038.06-.038.076 0 .132-.014.17-.043s.076-.045.117-.05l.01-.01c.004-.17 0-.28-.018-.325zM34.23 14.985l.135.104c-.038.028-.083.1-.134.216-.037.087-.116.13-.237.13-.064 0-.117-.017-.162-.052l-.132-.104-.03-.07c-.12.013-.218-.017-.294-.086-.127-.115-.2-.18-.22-.19-.025-.065-.167-.188-.428-.373-.286-.207-.47-.363-.552-.466-.095 0-.15-.008-.162-.026-.032-.052-.06-.104-.086-.156l-.133-.035c-.09-.202-.264-.303-.524-.303-.065 0-.12.032-.168.095l-.13.172-.15.043-.105.104-.238.043c.037.034.056.064.056.086 0 .034-.057.06-.17.077-.04.052-.193.164-.463.334s-.433.256-.49.256l-.067.182-.22.095.03.14c-.247.08-.435.152-.562.216-.045-.07-.146-.134-.305-.192l-.03-.113c0-.156.118-.277.352-.364l.067-.207c.126-.017.346-.137.66-.36.315-.22.492-.385.53-.488.108.006.18-.024.214-.09s.07-.1.1-.1c.007 0 .035.008.086.026.05.018.088.027.114.027.032 0 .048-.018.048-.052l-.076-.113.2-.208c.152 0 .228-.017.228-.052.013-.07.038-.118.076-.148l.096.018c.17-.127.324-.19.457-.19.102 0 .197.027.286.08.088.056.133.126.133.213l.21.043c.043.046.085.096.123.148.05.07.098.104.143.104.113 0 .224.092.333.277.108.185.193.274.257.268l.124-.01c.025.088.156.21.39.365.21.14.376.23.496.277l.03.2.294.05v.158zm-.313 2.285c0 .098-.003.16-.01.182-.21.093-.327.14-.352.14-.03 0-.076-.01-.133-.03-.057-.02-.102-.03-.133-.03-.052 0-.128.017-.23.05-.102.036-.18.053-.238.053-.07 0-.17-.014-.3-.043-.13-.03-.227-.043-.29-.043l-.172.103c-.476-.104-.74-.156-.79-.156-.05 0-.118.016-.2.048-.083.03-.15.048-.2.048-.07 0-.143-.026-.22-.078l-.523-.01c-.025 0-.065.014-.12.04-.053.026-.093.04-.118.04l-.21-.06-.23.068c-.29-.08-.517-.133-.675-.156l-.01-.2c-.006-.155.052-.233.172-.233.152 0 .33-.023.534-.07.045.018.102.027.172.027.057 0 .14-.008.252-.025s.192-.026.243-.026c.032 0 .078.01.138.034s.107.034.138.034l.19-.104.2.096c.052 0 .093-.05.125-.148.03-.08.048-.152.048-.216 0-.127-.022-.274-.067-.442-.216-.017-.378-.057-.487-.12-.095 0-.235.012-.42.038-.184.026-.323.04-.418.04-.057 0-.125-.024-.204-.07-.08-.046-.14-.07-.185-.07v-.052c-.007-.07 0-.152.02-.25.024-.134.06-.2.104-.2.05 0 .103.008.16.026.058.017.1.026.125.026.05 0 .108-.02.17-.06.058 0 .16.005.306.016.12.012.22.014.296.01.108-.007.203-.027.286-.062l.19.035c.065.013.115-.12.153-.397.03-.225.044-.384.038-.476v-.017c.203.006.33.003.38-.01.033.06.112.096.24.114-.02.092-.042.16-.067.208l.104.165-.048.086c.006.03.006.07 0 .122-.013.064-.02.107-.02.13 0 .098.087.147.258.147l.114-.008.01-.096c.037.006.094.03.17.07s.14.06.19.06l.172-.078c.076.052.18.078.314.078h.39c.172.018.258.08.258.19 0 .03-.013.082-.038.157s-.03.14-.02.19c-.056-.01-.104-.017-.142-.017-.044 0-.08.015-.104.044-.025.03-.06.043-.105.043-.026 0-.065-.012-.115-.035-.05-.023-.092-.034-.124-.034-.43 0-.827.052-1.19.156l.076.13c-.05.41-.025.614.076.614l.134-.086c.044 0 .108.014.19.043.083.03.146.043.19.043l.468-.13-.01-.008c.11.075.198.12.267.138l.144-.06c.475-.004.713.105.713.324zm-.743 2.182c.013.058.02.104.02.14s-.014.08-.04.142c-.025.06-.037.108-.037.143 0 .202-.185.303-.552.303-.032 0-.08-.01-.143-.026-.064-.018-.11-.026-.143-.026-.026 0-.063.008-.11.026-.05.017-.085.026-.11.026-.03 0-.07-.01-.12-.03-.047-.02-.086-.03-.118-.03-.064 0-.155.013-.276.04-.12.025-.213.038-.276.038-.102 0-.165-.023-.19-.07-.515.012-.814.03-.897.053-.07-.057-.127-.086-.17-.086-.115 0-.172-.014-.172-.044 0-.086-.008-.13-.028-.13l-.114.035c.007-.057 0-.13-.02-.22-.018-.09-.028-.155-.028-.195 0-.035.018-.08.052-.14.035-.056.052-.097.052-.12 0-.04-.014-.096-.043-.165-.028-.07-.042-.12-.042-.156 0-.313.044-.572.133-.78.045-.098.115-.156.21-.173.038-.012.143-.017.314-.017.064 0 .16.01.29.03.13.02.23.03.3.03.026 0 .07-.007.13-.022.06-.014.11-.018.147-.013.344.03.483.043.42.043.03 0 .082-.008.152-.026.07-.017.124-.026.162-.026.05 0 .14.018.27.052.13.035.212.064.244.087.025 0 .06-.013.104-.04.045-.025.083-.038.114-.038.203 0 .33.03.38.087.045.086.09.176.134.268-.045.046-.067.19-.067.433 0 .052.013.118.038.2l.05.198-.04.078c.005.024.01.065.024.122zm-.733-.052c0-.023-.015-.057-.047-.104-.032-.046-.048-.083-.048-.113s.016-.065.048-.108c.03-.044.048-.08.048-.108 0-.202-.177-.303-.533-.303-.03 0-.077.01-.138.026-.06.018-.107.026-.14.026-.025 0-.063-.007-.113-.022-.05-.014-.09-.022-.114-.022-.045 0-.113.006-.205.017-.092.01-.16.017-.204.017-.032 0-.083-.023-.152-.07-.05.03-.092.05-.124.06l-.067-.042c-.03 0-.08.017-.147.052-.067.034-.1.066-.1.095 0 .017.008.04.024.065.016.026.024.048.024.065 0 .03-.015.072-.047.13-.032.058-.048.098-.048.12 0 .11.02.184.057.222.038.038.118.068.238.09.013 0 .038.008.076.023.038.014.067.022.086.022.03 0 .073-.01.124-.03.05-.02.09-.03.114-.03s.07.037.133.112l.067.008c.076 0 .192-.012.347-.035.156-.023.25-.052.28-.087.058.064.1.096.125.096.02 0 .046-.012.08-.035.036-.024.066-.036.092-.036.178 0 .267-.034.267-.104z"/></g><path fill="#BEBDBD" d="M31.426 36.045c0 5.955-3.463 7.148-7.735 7.148S15.957 42 15.957 36.045s3.463-10.782 7.735-10.782 7.736 4.827 7.736 10.782z"/><ellipse fill="#FFF" cx="23.691" cy="38.629" rx="2.262" ry="1.733"/></svg>